<?xml version="1.0" encoding="utf-8"?>
<!-- Generator: Adobe Illustrator 27.0.0, SVG Export Plug-In . SVG Version: 6.00 Build 0)  -->
<svg version="1.1" id="Capa_1" xmlns="http://www.w3.org/2000/svg" xmlns:xlink="http://www.w3.org/1999/xlink" x="0px" y="0px"
	 viewBox="0 0 1370.7 314" style="enable-background:new 0 0 1370.7 314;" xml:space="preserve">
<style type="text/css">
	.st0{fill:#F5333F;}
	.st1{fill:#12284C;}
</style>
<g>
	<path class="st0" d="M73.8,184.3c-4,3.8-7.8,6.3-11.5,7.5c-3.6,1.3-6.9,1.6-10,1.1c-3.2-0.6-5.9-1.6-8.2-3
		c-2.3-1.4-4.2-2.8-5.6-4.2c-5.2-5.3-7.9-10.8-8.2-16.7c-0.3-5.8,1.9-11.4,6.8-16.7l-0.2-0.3l-20.5,3.8L9.7,149l28.9-28.5l7.1,7.3
		l-16.3,16l0.1,0.1c8.7-2.7,16.7-4,23.7-4.1c7.1-0.1,13.6,2.7,19.3,8.4c5.3,5.4,8.3,11.3,8.8,17.7C81.9,172.4,79.4,178.5,73.8,184.3
		z M68.6,167.8c-0.4-1.6-1.1-3.2-2-4.6c-1-1.4-2.1-2.7-3.3-3.9c-4.2-4.4-9.4-6.3-15.4-5.8c-6.6,7.7-6.3,15,0.8,22.1
		c2.4,2.5,5.2,4,8.2,4.5c3.1,0.7,6.1-0.3,8.8-2.9C68.5,174.2,69.5,171.1,68.6,167.8z"/>
	<path class="st1" d="M100,157.1l-48.8-49.5l18-17.7c5.4-5.3,11-8.7,16.8-10c5.8-1.4,11.5-1.1,17,0.9s10.5,5.2,15,9.8
		c4.9,5,8.3,10.4,9.9,16.1c1.7,5.7,1.7,11.4,0,17c-1.6,5.6-4.9,10.9-9.9,15.8L100,157.1z M108.2,100.1c-3.2-3.2-6.5-5.5-10.1-6.8
		s-7.1-1.6-10.7-0.8c-3.5,0.8-6.9,2.7-10,5.8l-8.4,8.2l32.2,32.7l8.4-8.2c3.2-3.1,5.1-6.5,5.9-10c0.8-3.6,0.5-7.2-0.8-10.8
		C113.5,106.5,111.3,103.2,108.2,100.1z"/>
	<path class="st1" d="M140.9,203.3c2.7,2.8,4.3,5.8,4.7,9.1s-0.1,6.6-1.6,10s-3.7,6.5-6.5,9.3l-23.9,23.6l-48.8-49.5l26.5-26.1
		c2.3-2.3,4.9-3.7,7.9-4.1c2.9-0.4,5.8-0.1,8.6,0.9s5.2,2.6,7.3,4.7c2.3,2.4,4,5.2,4.9,8.6c0.9,3.3,0.7,6.7-0.6,10
		c3.7-2,7.4-2.7,11.2-2.1C134.3,198.2,137.8,200,140.9,203.3z M82.5,204.5L94.8,217l12.8-12.6c1.1-1.1,1.8-2.3,2.2-3.7
		s0.4-2.8,0-4.3s-1.2-2.8-2.5-4.1c-1.2-1.3-2.6-2.1-4-2.6c-1.4-0.4-2.8-0.5-4.1-0.2s-2.5,0.9-3.5,1.9L82.5,204.5z M129.4,211
		c-1.2-1.3-2.6-2.1-4.1-2.6s-3-0.6-4.4-0.3s-2.7,0.9-3.8,2l-14.8,14.6l12.8,13l14.3-14.1c1.2-1.1,1.9-2.5,2.3-4c0.4-1.5,0.4-3,0-4.6
		C131.4,213.5,130.6,212.2,129.4,211z"/>
	<path class="st1" d="M140.3,166.3l31.3,31.8l-9.6,9.5l-48.8-49.5l7.7-7.6l57.8,7.4l-32.1-32.6l9.6-9.5l48.7,49.5l-8,7.9
		L140.3,166.3z"/>
	<path class="st1" d="M212.8,76.7L197,92.3l40.5,41.1l-9.6,9.4l-40.5-41.1l-15.8,15.6l-8.3-8.4l41.2-40.6L212.8,76.7z"/>
</g>
<g>
	<path class="st1" d="M304.2,223.1V97.8h40.9c13.2,0,24.1,2.8,32.8,8.4c8.7,5.6,15.3,13.1,19.7,22.6c4.4,9.5,6.6,20,6.6,31.5
		c0,12.7-2.4,23.8-7.2,33.2c-4.8,9.4-11.7,16.7-20.6,21.9c-8.9,5.2-19.3,7.8-31.3,7.8H304.2z M398,160.3c0-10.9-2.1-20.7-6.2-29.3
		c-4.1-8.6-10.1-15.3-17.9-20.2c-7.8-4.9-17.4-7.3-28.8-7.3h-34.8v114h34.8c11.5,0,21.2-2.5,29.1-7.5c7.9-5,13.8-11.8,17.8-20.6
		C396,180.7,398,171,398,160.3z"/>
	<path class="st1" d="M465.2,97.8h5.3l53.8,125.2h-6.5l-18.4-43.2h-63.1L418,223.1h-6.7L465.2,97.8z M497.2,174.6l-29.3-69l-29.3,69
		H497.2z"/>
	<path class="st1" d="M550.6,109.3v113.8h-6.2V97.8h4.9l91.7,115.5V97.8h6.2v125.2h-6.4L550.6,109.3z"/>
	<path class="st1" d="M681.1,223.1V97.8h6.2v125.2H681.1z"/>
	<path class="st1" d="M857.5,190.6c0,5.9-1.4,11.3-4.3,16.2c-2.9,4.9-6.8,8.9-11.7,11.8c-4.9,2.9-10.4,4.4-16.2,4.4h-58.4V97.8h56.8
		c5.9,0,11,1.6,15.3,4.7c4.3,3.1,7.6,7.1,9.9,12c2.3,4.9,3.4,10,3.4,15.3c0,6.4-1.6,12.2-4.8,17.5c-3.2,5.3-7.6,9.2-13.2,11.6
		c7.2,2.1,12.8,6.1,17,12C855.5,176.7,857.5,183.3,857.5,190.6z M773,103.5v53.6h48.5c4.8,0,9.1-1.3,12.8-3.9
		c3.7-2.6,6.6-5.9,8.7-10.1c2.1-4.1,3.2-8.4,3.2-12.9c0-4.8-1-9.3-3-13.3c-2-4.1-4.8-7.3-8.4-9.8c-3.6-2.5-7.7-3.7-12.3-3.7H773z
		 M851.5,190.1c0-4.8-1.1-9.3-3.3-13.4c-2.2-4.1-5.2-7.5-9-10.1c-3.8-2.6-8.1-4-12.8-4H773v54.9h52.2c4.8,0,9.2-1.3,13.2-4
		c4-2.6,7.2-6.1,9.5-10.2C850.4,199.1,851.5,194.7,851.5,190.1z"/>
	<path class="st1" d="M932.7,224c-8.7,0-16.6-1.8-23.8-5.4c-7.2-3.6-13.3-8.4-18.5-14.4c-5.2-6-9.2-12.8-12-20.4
		c-2.8-7.6-4.2-15.4-4.2-23.4c0-8.3,1.5-16.3,4.4-23.9c2.9-7.6,7.1-14.3,12.4-20.3c5.3-5.9,11.6-10.6,18.7-14.1
		c7.1-3.5,14.8-5.2,23-5.2c8.7,0,16.6,1.8,23.8,5.5c7.2,3.6,13.3,8.5,18.4,14.6c5.1,6.1,9.1,12.9,11.9,20.5
		c2.8,7.5,4.2,15.2,4.2,22.9c0,8.5-1.5,16.5-4.4,24.1c-2.9,7.6-7.1,14.3-12.3,20.3c-5.3,5.9-11.5,10.6-18.6,14
		C948.6,222.3,940.9,224,932.7,224z M880.3,160.5c0,7.5,1.3,14.7,3.9,21.6c2.6,6.9,6.2,13,10.8,18.4c4.6,5.4,10.2,9.7,16.6,12.9
		c6.4,3.2,13.4,4.8,21.1,4.8c7.8,0,14.9-1.6,21.3-4.9c6.5-3.3,12-7.7,16.6-13.2c4.6-5.5,8.1-11.7,10.6-18.5c2.5-6.8,3.7-13.8,3.7-21
		c0-7.5-1.3-14.7-3.9-21.6c-2.6-6.9-6.2-13-10.9-18.4c-4.7-5.4-10.3-9.7-16.7-12.9c-6.4-3.2-13.3-4.8-20.7-4.8
		c-7.9,0-15,1.6-21.4,4.9c-6.4,3.3-11.9,7.7-16.5,13.2c-4.6,5.5-8.1,11.7-10.7,18.5C881.6,146.3,880.3,153.3,880.3,160.5z"/>
	<path class="st1" d="M1022.3,109.3v113.8h-6.2V97.8h4.9l91.7,115.5V97.8h6.2v125.2h-6.4L1022.3,109.3z"/>
	<path class="st1" d="M1235.6,217.4v5.6h-82.7V97.8h81.1v5.6h-75v52.7h65.6v5.6H1159v55.6H1235.6z"/>
	<path class="st1" d="M1347.6,103.5h-46.9v119.6h-6.2V103.5h-46.9v-5.6h100V103.5z"/>
</g>
</svg>
